<mxfile host="app.diagrams.net" agent="Mozilla/5.0 (Windows NT 10.0; Win64; x64) AppleWebKit/537.36 (KHTML, like Gecko) Chrome/131.0.0.0 Safari/537.36" version="24.9.2">
  <diagram name="ページ1" id="UKurcXn6ClNTMfO9MEyd">
    <mxGraphModel dx="2474" dy="1138" grid="0" gridSize="10" guides="1" tooltips="1" connect="1" arrows="1" fold="1" page="0" pageScale="1" pageWidth="827" pageHeight="1169" math="0" shadow="0">
      <root>
        <mxCell id="0" />
        <mxCell id="1" parent="0" />
        <mxCell id="p4BAyUOBCiDmNS6vpzM3-177" value="" style="rounded=0;whiteSpace=wrap;html=1;" vertex="1" parent="1">
          <mxGeometry x="-562" y="-166" width="1342" height="723" as="geometry" />
        </mxCell>
        <mxCell id="p4BAyUOBCiDmNS6vpzM3-57" value="" style="rounded=0;whiteSpace=wrap;html=1;" vertex="1" parent="1">
          <mxGeometry x="-444" y="-103" width="144" height="100" as="geometry" />
        </mxCell>
        <mxCell id="p4BAyUOBCiDmNS6vpzM3-66" value="" style="rounded=0;whiteSpace=wrap;html=1;" vertex="1" parent="1">
          <mxGeometry x="-433" y="-85" width="122" height="20" as="geometry" />
        </mxCell>
        <mxCell id="p4BAyUOBCiDmNS6vpzM3-68" value="" style="rounded=0;whiteSpace=wrap;html=1;" vertex="1" parent="1">
          <mxGeometry x="-444" y="118" width="144" height="100" as="geometry" />
        </mxCell>
        <mxCell id="p4BAyUOBCiDmNS6vpzM3-69" value="" style="rounded=0;whiteSpace=wrap;html=1;" vertex="1" parent="1">
          <mxGeometry x="-433" y="136" width="122" height="20" as="geometry" />
        </mxCell>
        <mxCell id="p4BAyUOBCiDmNS6vpzM3-70" value="" style="endArrow=classic;html=1;rounded=0;fontSize=12;startSize=8;endSize=8;curved=1;exitX=0.25;exitY=1;exitDx=0;exitDy=0;entryX=0.25;entryY=0;entryDx=0;entryDy=0;" edge="1" parent="1" source="p4BAyUOBCiDmNS6vpzM3-57" target="p4BAyUOBCiDmNS6vpzM3-68">
          <mxGeometry width="50" height="50" relative="1" as="geometry">
            <mxPoint x="-417" y="52" as="sourcePoint" />
            <mxPoint x="-412" y="113" as="targetPoint" />
          </mxGeometry>
        </mxCell>
        <mxCell id="p4BAyUOBCiDmNS6vpzM3-71" value="" style="endArrow=classic;html=1;rounded=0;fontSize=12;startSize=8;endSize=8;curved=1;exitX=0.75;exitY=0;exitDx=0;exitDy=0;entryX=0.75;entryY=1;entryDx=0;entryDy=0;" edge="1" parent="1" source="p4BAyUOBCiDmNS6vpzM3-68" target="p4BAyUOBCiDmNS6vpzM3-57">
          <mxGeometry width="50" height="50" relative="1" as="geometry">
            <mxPoint x="238" y="229" as="sourcePoint" />
            <mxPoint x="288" y="179" as="targetPoint" />
          </mxGeometry>
        </mxCell>
        <mxCell id="p4BAyUOBCiDmNS6vpzM3-88" style="edgeStyle=none;curved=1;rounded=0;orthogonalLoop=1;jettySize=auto;html=1;exitX=1;exitY=0.25;exitDx=0;exitDy=0;fontSize=12;startSize=8;endSize=8;" edge="1" parent="1" source="p4BAyUOBCiDmNS6vpzM3-72" target="p4BAyUOBCiDmNS6vpzM3-84">
          <mxGeometry relative="1" as="geometry" />
        </mxCell>
        <mxCell id="p4BAyUOBCiDmNS6vpzM3-91" style="edgeStyle=none;curved=1;rounded=0;orthogonalLoop=1;jettySize=auto;html=1;exitX=1;exitY=0.5;exitDx=0;exitDy=0;entryX=0;entryY=0.5;entryDx=0;entryDy=0;fontSize=12;startSize=8;endSize=8;" edge="1" parent="1" source="p4BAyUOBCiDmNS6vpzM3-72" target="p4BAyUOBCiDmNS6vpzM3-85">
          <mxGeometry relative="1" as="geometry" />
        </mxCell>
        <mxCell id="p4BAyUOBCiDmNS6vpzM3-97" style="edgeStyle=none;curved=1;rounded=0;orthogonalLoop=1;jettySize=auto;html=1;exitX=1;exitY=0.75;exitDx=0;exitDy=0;entryX=0;entryY=0.5;entryDx=0;entryDy=0;fontSize=12;startSize=8;endSize=8;" edge="1" parent="1" source="p4BAyUOBCiDmNS6vpzM3-72" target="p4BAyUOBCiDmNS6vpzM3-86">
          <mxGeometry relative="1" as="geometry" />
        </mxCell>
        <mxCell id="p4BAyUOBCiDmNS6vpzM3-104" style="edgeStyle=none;curved=1;rounded=0;orthogonalLoop=1;jettySize=auto;html=1;exitX=0;exitY=1;exitDx=0;exitDy=0;entryX=0.75;entryY=0;entryDx=0;entryDy=0;fontSize=12;startSize=8;endSize=8;" edge="1" parent="1" source="p4BAyUOBCiDmNS6vpzM3-72" target="p4BAyUOBCiDmNS6vpzM3-102">
          <mxGeometry relative="1" as="geometry" />
        </mxCell>
        <mxCell id="p4BAyUOBCiDmNS6vpzM3-113" style="edgeStyle=none;curved=1;rounded=0;orthogonalLoop=1;jettySize=auto;html=1;exitX=1;exitY=1;exitDx=0;exitDy=0;fontSize=12;startSize=8;endSize=8;" edge="1" parent="1" source="p4BAyUOBCiDmNS6vpzM3-72" target="p4BAyUOBCiDmNS6vpzM3-112">
          <mxGeometry relative="1" as="geometry" />
        </mxCell>
        <mxCell id="p4BAyUOBCiDmNS6vpzM3-72" value="" style="rounded=0;whiteSpace=wrap;html=1;" vertex="1" parent="1">
          <mxGeometry x="-179" y="-103" width="143" height="205" as="geometry" />
        </mxCell>
        <mxCell id="p4BAyUOBCiDmNS6vpzM3-73" value="" style="endArrow=classic;html=1;rounded=0;fontSize=12;startSize=8;endSize=8;curved=1;exitX=1;exitY=0.5;exitDx=0;exitDy=0;entryX=0;entryY=0.25;entryDx=0;entryDy=0;" edge="1" parent="1" source="p4BAyUOBCiDmNS6vpzM3-57" target="p4BAyUOBCiDmNS6vpzM3-72">
          <mxGeometry width="50" height="50" relative="1" as="geometry">
            <mxPoint x="238" y="229" as="sourcePoint" />
            <mxPoint x="288" y="179" as="targetPoint" />
          </mxGeometry>
        </mxCell>
        <mxCell id="p4BAyUOBCiDmNS6vpzM3-74" value="" style="rounded=1;whiteSpace=wrap;html=1;" vertex="1" parent="1">
          <mxGeometry x="-165" y="-81.5" width="105" height="22" as="geometry" />
        </mxCell>
        <mxCell id="p4BAyUOBCiDmNS6vpzM3-75" value="" style="rounded=1;whiteSpace=wrap;html=1;" vertex="1" parent="1">
          <mxGeometry x="-165" y="-46.5" width="105" height="22" as="geometry" />
        </mxCell>
        <mxCell id="p4BAyUOBCiDmNS6vpzM3-76" value="" style="rounded=1;whiteSpace=wrap;html=1;" vertex="1" parent="1">
          <mxGeometry x="-165" y="-11.5" width="105" height="22" as="geometry" />
        </mxCell>
        <mxCell id="p4BAyUOBCiDmNS6vpzM3-77" value="" style="rounded=1;whiteSpace=wrap;html=1;" vertex="1" parent="1">
          <mxGeometry x="-165" y="23.5" width="105" height="22" as="geometry" />
        </mxCell>
        <mxCell id="p4BAyUOBCiDmNS6vpzM3-78" value="" style="rounded=1;whiteSpace=wrap;html=1;" vertex="1" parent="1">
          <mxGeometry x="-165" y="58.5" width="105" height="22" as="geometry" />
        </mxCell>
        <mxCell id="p4BAyUOBCiDmNS6vpzM3-79" value="ログイン画面" style="text;strokeColor=none;fillColor=none;html=1;align=center;verticalAlign=middle;whiteSpace=wrap;rounded=0;fontSize=16;" vertex="1" parent="1">
          <mxGeometry x="-445" y="-138" width="145" height="25" as="geometry" />
        </mxCell>
        <mxCell id="p4BAyUOBCiDmNS6vpzM3-80" value="新規アカウント&lt;div&gt;作成画面&lt;/div&gt;" style="text;strokeColor=none;fillColor=none;html=1;align=center;verticalAlign=middle;whiteSpace=wrap;rounded=0;fontSize=16;" vertex="1" parent="1">
          <mxGeometry x="-444" y="231" width="146" height="34" as="geometry" />
        </mxCell>
        <mxCell id="p4BAyUOBCiDmNS6vpzM3-81" value="ログイン" style="text;strokeColor=none;fillColor=none;html=1;align=center;verticalAlign=middle;whiteSpace=wrap;rounded=0;fontSize=16;" vertex="1" parent="1">
          <mxGeometry x="-277" y="-83" width="74" height="25" as="geometry" />
        </mxCell>
        <mxCell id="p4BAyUOBCiDmNS6vpzM3-82" value="" style="rounded=0;whiteSpace=wrap;html=1;" vertex="1" parent="1">
          <mxGeometry x="-433.5" y="172" width="122" height="20" as="geometry" />
        </mxCell>
        <mxCell id="p4BAyUOBCiDmNS6vpzM3-101" style="edgeStyle=none;curved=1;rounded=0;orthogonalLoop=1;jettySize=auto;html=1;exitX=0.5;exitY=1;exitDx=0;exitDy=0;entryX=0.5;entryY=0;entryDx=0;entryDy=0;fontSize=12;startSize=8;endSize=8;" edge="1" parent="1" source="p4BAyUOBCiDmNS6vpzM3-84" target="p4BAyUOBCiDmNS6vpzM3-85">
          <mxGeometry relative="1" as="geometry" />
        </mxCell>
        <mxCell id="p4BAyUOBCiDmNS6vpzM3-84" value="新規進捗追加登録画面" style="rounded=0;whiteSpace=wrap;html=1;" vertex="1" parent="1">
          <mxGeometry x="258" y="-103" width="154" height="100" as="geometry" />
        </mxCell>
        <mxCell id="p4BAyUOBCiDmNS6vpzM3-85" value="進行中・当年完了済み進捗表示画面" style="rounded=0;whiteSpace=wrap;html=1;" vertex="1" parent="1">
          <mxGeometry x="258" y="40" width="154" height="100" as="geometry" />
        </mxCell>
        <mxCell id="p4BAyUOBCiDmNS6vpzM3-120" style="edgeStyle=none;curved=1;rounded=0;orthogonalLoop=1;jettySize=auto;html=1;exitX=1;exitY=0.5;exitDx=0;exitDy=0;entryX=0;entryY=0.5;entryDx=0;entryDy=0;fontSize=12;startSize=8;endSize=8;" edge="1" parent="1" source="p4BAyUOBCiDmNS6vpzM3-86" target="p4BAyUOBCiDmNS6vpzM3-98">
          <mxGeometry relative="1" as="geometry" />
        </mxCell>
        <mxCell id="p4BAyUOBCiDmNS6vpzM3-86" value="年別完了済み進捗項目&lt;div&gt;表示画面&lt;/div&gt;" style="rounded=0;whiteSpace=wrap;html=1;" vertex="1" parent="1">
          <mxGeometry x="258" y="191" width="154" height="100" as="geometry" />
        </mxCell>
        <mxCell id="p4BAyUOBCiDmNS6vpzM3-92" value="進捗内容編集・完了画面" style="rounded=0;whiteSpace=wrap;html=1;" vertex="1" parent="1">
          <mxGeometry x="519" y="40" width="144" height="100" as="geometry" />
        </mxCell>
        <mxCell id="p4BAyUOBCiDmNS6vpzM3-98" value="年別完了済み進捗&lt;div&gt;表示画面&lt;/div&gt;" style="rounded=0;whiteSpace=wrap;html=1;" vertex="1" parent="1">
          <mxGeometry x="519" y="191" width="144" height="100" as="geometry" />
        </mxCell>
        <mxCell id="p4BAyUOBCiDmNS6vpzM3-102" value="パスワード変更画面" style="rounded=0;whiteSpace=wrap;html=1;" vertex="1" parent="1">
          <mxGeometry x="-285" y="321" width="144" height="100" as="geometry" />
        </mxCell>
        <mxCell id="p4BAyUOBCiDmNS6vpzM3-103" value="名前変更画面" style="rounded=0;whiteSpace=wrap;html=1;" vertex="1" parent="1">
          <mxGeometry x="-105" y="321" width="144" height="100" as="geometry" />
        </mxCell>
        <mxCell id="p4BAyUOBCiDmNS6vpzM3-106" value="" style="endArrow=none;html=1;rounded=0;fontSize=12;startSize=8;endSize=8;curved=1;entryX=0;entryY=0.75;entryDx=0;entryDy=0;" edge="1" parent="1" target="p4BAyUOBCiDmNS6vpzM3-102">
          <mxGeometry width="50" height="50" relative="1" as="geometry">
            <mxPoint x="-501" y="396" as="sourcePoint" />
            <mxPoint x="-335" y="396" as="targetPoint" />
          </mxGeometry>
        </mxCell>
        <mxCell id="p4BAyUOBCiDmNS6vpzM3-107" value="" style="endArrow=none;html=1;rounded=0;fontSize=12;startSize=8;endSize=8;curved=1;" edge="1" parent="1">
          <mxGeometry width="50" height="50" relative="1" as="geometry">
            <mxPoint x="-500" y="395" as="sourcePoint" />
            <mxPoint x="-497" y="-40" as="targetPoint" />
          </mxGeometry>
        </mxCell>
        <mxCell id="p4BAyUOBCiDmNS6vpzM3-108" value="" style="endArrow=classic;html=1;rounded=0;fontSize=12;startSize=8;endSize=8;curved=1;entryX=0.007;entryY=0.62;entryDx=0;entryDy=0;entryPerimeter=0;" edge="1" parent="1" target="p4BAyUOBCiDmNS6vpzM3-57">
          <mxGeometry width="50" height="50" relative="1" as="geometry">
            <mxPoint x="-498" y="-40" as="sourcePoint" />
            <mxPoint x="-448" y="-90" as="targetPoint" />
          </mxGeometry>
        </mxCell>
        <mxCell id="p4BAyUOBCiDmNS6vpzM3-109" value="" style="endArrow=classic;startArrow=classic;html=1;rounded=0;fontSize=12;startSize=8;endSize=8;curved=1;exitX=0.5;exitY=0;exitDx=0;exitDy=0;entryX=0.5;entryY=1;entryDx=0;entryDy=0;" edge="1" parent="1" source="p4BAyUOBCiDmNS6vpzM3-86" target="p4BAyUOBCiDmNS6vpzM3-85">
          <mxGeometry width="50" height="50" relative="1" as="geometry">
            <mxPoint x="280" y="191" as="sourcePoint" />
            <mxPoint x="330" y="141" as="targetPoint" />
          </mxGeometry>
        </mxCell>
        <mxCell id="p4BAyUOBCiDmNS6vpzM3-110" value="" style="endArrow=classic;startArrow=classic;html=1;rounded=0;fontSize=12;startSize=8;endSize=8;curved=1;entryX=0;entryY=0.5;entryDx=0;entryDy=0;exitX=1;exitY=0.5;exitDx=0;exitDy=0;" edge="1" parent="1" source="p4BAyUOBCiDmNS6vpzM3-85" target="p4BAyUOBCiDmNS6vpzM3-92">
          <mxGeometry width="50" height="50" relative="1" as="geometry">
            <mxPoint x="405" y="92" as="sourcePoint" />
            <mxPoint x="455" y="42" as="targetPoint" />
          </mxGeometry>
        </mxCell>
        <mxCell id="p4BAyUOBCiDmNS6vpzM3-112" value="ユーザー管理画面" style="rounded=0;whiteSpace=wrap;html=1;" vertex="1" parent="1">
          <mxGeometry x="78" y="321" width="144" height="100" as="geometry" />
        </mxCell>
        <mxCell id="p4BAyUOBCiDmNS6vpzM3-114" value="Actor" style="shape=umlActor;verticalLabelPosition=bottom;verticalAlign=top;html=1;outlineConnect=0;" vertex="1" parent="1">
          <mxGeometry x="-509" y="-155" width="30" height="60" as="geometry" />
        </mxCell>
        <mxCell id="p4BAyUOBCiDmNS6vpzM3-115" value="トップ画面" style="text;strokeColor=none;fillColor=none;html=1;align=center;verticalAlign=middle;whiteSpace=wrap;rounded=0;fontSize=16;" vertex="1" parent="1">
          <mxGeometry x="-161" y="-140.5" width="110" height="30" as="geometry" />
        </mxCell>
        <mxCell id="p4BAyUOBCiDmNS6vpzM3-117" value="" style="endArrow=classic;startArrow=classic;html=1;rounded=0;fontSize=12;startSize=8;endSize=8;curved=1;entryX=0.75;entryY=1;entryDx=0;entryDy=0;exitX=0.25;exitY=0;exitDx=0;exitDy=0;" edge="1" parent="1" source="p4BAyUOBCiDmNS6vpzM3-103" target="p4BAyUOBCiDmNS6vpzM3-72">
          <mxGeometry width="50" height="50" relative="1" as="geometry">
            <mxPoint x="-77" y="305" as="sourcePoint" />
            <mxPoint x="-27" y="255" as="targetPoint" />
          </mxGeometry>
        </mxCell>
        <mxCell id="p4BAyUOBCiDmNS6vpzM3-118" value="パスワード変更成功" style="text;strokeColor=none;fillColor=none;html=1;align=center;verticalAlign=middle;whiteSpace=wrap;rounded=0;fontSize=16;" vertex="1" parent="1">
          <mxGeometry x="-469" y="359" width="162" height="30" as="geometry" />
        </mxCell>
        <mxCell id="p4BAyUOBCiDmNS6vpzM3-119" value="登録成功時" style="text;strokeColor=none;fillColor=none;html=1;align=center;verticalAlign=middle;whiteSpace=wrap;rounded=0;fontSize=16;" vertex="1" parent="1">
          <mxGeometry x="344" y="4" width="109" height="30" as="geometry" />
        </mxCell>
        <mxCell id="p4BAyUOBCiDmNS6vpzM3-121" value="権限エラー画面" style="rounded=0;whiteSpace=wrap;html=1;" vertex="1" parent="1">
          <mxGeometry x="78" y="467" width="145" height="60" as="geometry" />
        </mxCell>
        <mxCell id="p4BAyUOBCiDmNS6vpzM3-122" value="汎用エラーページ" style="rounded=0;whiteSpace=wrap;html=1;" vertex="1" parent="1">
          <mxGeometry x="511" y="-144" width="204" height="146" as="geometry" />
        </mxCell>
      </root>
    </mxGraphModel>
  </diagram>
</mxfile>
